PathFileType	4	(X/Y/Z)	Trial10_KneeL_markers_cropped.trc
DataRate	CameraRate	NumFrames	NumMarkers	Units	OrigDataRate	OrigDataStartFrame	OrigNumFrames
200	200	5	27	m	200	37	101
Frame#	Time	R_ASIS			L_ASIS			Sacral			L_Thigh_Superior			L_Thigh_Posterior			L_Thigh_Inferior			L_Thigh_Lateral			L_Shank_Posterior			L_Shank_Superior			L_Shank_Lateral			L_Shank_Inferior			L_Midfoot_Superior			L_Heel			L_Midfoot_Lateral			L_Toe			R_Thigh_Posterior			R_Thigh_Superior			R_Thigh_Lateral			R_Thigh_Inferior			R_Shank_Posterior			R_Shank_Superior			R_Shank_Lateral			R_Shank_Inferior			R_Midfoot_Superior			R_Heel			R_Midfoot_Lateral			R_Toe
		X1	Y1	Z1	X2	Y2	Z2	X3	Y3	Z3	X4	Y4	Z4	X5	Y5	Z5	X6	Y6	Z6	X7	Y7	Z7	X8	Y8	Z8	X9	Y9	Z9	X10	Y10	Z10	X11	Y11	Z11	X12	Y12	Z12	X13	Y13	Z13	X14	Y14	Z14	X15	Y15	Z15	X16	Y16	Z16	X17	Y17	Z17	X18	Y18	Z18	X19	Y19	Z19	X20	Y20	Z20	X21	Y21	Z21	X22	Y22	Z22	X23	Y23	Z23	X24	Y24	Z24	X25	Y25	Z25	X26	Y26	Z26	X27	Y27	Z27

38	   0.185	    1.15389360567280	    0.97124246426872	    0.66390229378040	    1.10184880938474	    0.99315890622403	    0.41473456904037	    0.93718531202240	    1.03097345035031	    0.59108515100924	    1.11909977392982	    0.78890535381051	    0.31236111580630	    1.05018950814535	    0.75920604292402	    0.32063492625851	    1.15234653493846	    0.70057052812907	    0.30150733096290	    1.07735416201189	    0.67384364165986	    0.30985787838242	    1.03314630045917	    0.54124985448863	    0.29992085865186	    1.03726716394522	    0.46587277159189	    0.29618525960214	    0.96366467800860	    0.52447572617804	    0.30222585642102	    0.97864352390130	    0.46017917390427	    0.29919230411165	    0.79886098312688	    0.34138594135397	    0.37703007345041	    0.69753609214262	    0.47712699218754	    0.43853737657263	    0.70738282749395	    0.39112538012282	    0.35358603105593	    0.79823528459463	    0.21243115502762	    0.35084653098118	    1.07069664265444	    0.75318543378974	    0.71838111075537	    1.14386042780629	    0.75364362171838	    0.69994660687105	    1.07266137386684	    0.65469540203451	    0.70239568115782	    1.14242257858352	    0.65846773176147	    0.68833996505657	    1.00584015260126	    0.33858068529844	    0.66249236414615	    1.07964276621822	    0.32541281267092	    0.64571657026265	    0.99888770019754	    0.27039359927982	    0.64240702207120	    1.06964199610677	    0.26872183152084	    0.62805531205757	    1.09054517276347	    0.08699721528459	    0.53739543544847	    0.92031178406083	    0.04519076422293	    0.50526616854857	    1.01557669742405	    0.01324214515278	    0.57984595681139	    1.21459516442083	    0.04091134051744	    0.54696937780544
39	   0.190	    1.15399807301691	    0.97124791440121	    0.66306249804432	    1.10167721755524	    0.99317841859298	    0.41400500919828	    0.93720419581232	    1.03118166231756	    0.59054226290189	    1.11928644255775	    0.78910734648069	    0.31185230964576	    1.05037721708227	    0.75940234948249	    0.32000082036688	    1.15255825741441	    0.70079134710353	    0.30086453425461	    1.07755419731373	    0.67405591443612	    0.30906427411213	    1.03409099636489	    0.54501528296353	    0.30002413013139	    1.03582682563464	    0.46955480084111	    0.29665777630708	    0.96410827784080	    0.53045584752322	    0.30286212146036	    0.97705550692603	    0.46572712812370	    0.30005335931422	    0.79381719628667	    0.35337334571056	    0.37896742224259	    0.69746507966243	    0.49258090728045	    0.44115606593361	    0.70384471540241	    0.40583681569698	    0.35658812627268	    0.78853831977904	    0.22410859494132	    0.35424755310219	    1.07064633803100	    0.75332587472955	    0.71778113497295	    1.14382509064290	    0.75371565391796	    0.69936356717301	    1.07260451408482	    0.65481841043708	    0.70187632703214	    1.14236965049273	    0.65854973025282	    0.68786687775689	    1.00573632889028	    0.33867880303060	    0.66230379423070	    1.07962463194836	    0.32548679482534	    0.64546046475739	    0.99887102858042	    0.27047757630087	    0.64217609193962	    1.06962852679669	    0.26880751624554	    0.62783558936310	    1.09055430233418	    0.08700307556927	    0.53737950927283	    0.92032505922955	    0.04522228163984	    0.50532081975886	    1.01557802370374	    0.01324703168417	    0.57983459369838	    1.21459677113871	    0.04089689051684	    0.54695442556082
40	   0.195	    1.15409404390726	    0.97123230250185	    0.66232108763093	    1.10156661266426	    0.99320405083553	    0.41330168907299	    0.93718137985854	    1.03151223251117	    0.58989601017291	    1.11955505694549	    0.78926922645928	    0.31124571182468	    1.05063978600367	    0.75957660981374	    0.31928518628774	    1.15282163330063	    0.70098327560593	    0.30015327191154	    1.07782364775247	    0.67425706293863	    0.30821641763815	    1.03521756589567	    0.54851279606079	    0.30005521461819	    1.03472920066416	    0.47299590002353	    0.29718878148820	    0.96483767887453	    0.53598591721434	    0.30340326069916	    0.97598545647311	    0.47079012910642	    0.30091506263309	    0.78977324586195	    0.36499236997242	    0.38035556489861	    0.69796459926655	    0.50712904520489	    0.44345921261736	    0.70114211947410	    0.41966500933678	    0.35937852404894	    0.78003913818690	    0.23536519523644	    0.35774141137026	    1.07043745042066	    0.75345929762531	    0.71717116936408	    1.14366775241412	    0.75381179434539	    0.69883455603058	    1.07238219258650	    0.65494053025821	    0.70135280861175	    1.14219123578020	    0.65862311448514	    0.68746340200427	    1.00558282608829	    0.33878775879488	    0.66197845820003	    1.07954918810668	    0.32553286190318	    0.64514829373249	    0.99878314051949	    0.27056765168072	    0.64171034130064	    1.06956839886395	    0.26888147454625	    0.62750113301809	    1.09057047975932	    0.08698708937836	    0.53735435786727	    0.92032613829413	    0.04521920350919	    0.50533509040523	    1.01557851469986	    0.01327211150033	    0.57979123169485	    1.21459603613394	    0.04087597450208	    0.54694469837451
41	   0.200	    1.15417449753175	    0.97118670029092	    0.66161856933144	    1.10144212481531	    0.99321543369382	    0.41257965614777	    0.93722194804165	    1.03185879451299	    0.58917500564129	    1.11990615963769	    0.78944934810650	    0.31058038165219	    1.05097920073090	    0.75974978709977	    0.31851309771121	    1.15317500431511	    0.70117931282907	    0.29944233748628	    1.07817499826710	    0.67445229548662	    0.30738932528459	    1.03659905580265	    0.55161242484382	    0.29998968634779	    1.03409823404221	    0.47610324904481	    0.29774897891982	    0.96592508255129	    0.54094664495667	    0.30377076788895	    0.97537084318858	    0.47548561644504	    0.30174341872934	    0.78666500978950	    0.37562863670610	    0.38279979410194	    0.69902511511329	    0.52072636206645	    0.44532010979443	    0.69928336976339	    0.43242044959637	    0.36201718884964	    0.77284391661623	    0.24593612255871	    0.36167418649942	    1.07018301234615	    0.75357441514556	    0.71653222022857	    1.14343254360001	    0.75385581743458	    0.69832105114358	    1.07205870660989	    0.65506360892997	    0.70081285181428	    1.14190407710478	    0.65866736545303	    0.68701872400403	    1.00552406047190	    0.33887364278130	    0.66139997111683	    1.07939764532445	    0.32558621962458	    0.64476964625287	    0.99861015000952	    0.27066285362076	    0.64100866151485	    1.06942288091486	    0.26895590336146	    0.62700881811508	    1.09059695794382	    0.08695923957210	    0.53730204119614	    0.92032891636444	    0.04520200827775	    0.50531208958851	    1.01559121021380	    0.01331461252279	    0.57978499411696	    1.21460603103073	    0.04082194127297	    0.54693621048788
42	   0.205	    1.15424862470663	    0.97112160857508	    0.66082205742124	    1.10119814395023	    0.99319981877066	    0.41179383715405	    0.93729500681614	    1.03213036369661	    0.58845608191413	    1.12028121928899	    0.78972231065725	    0.30996593728248	    1.05136941371100	    0.75996933621128	    0.31786209607371	    1.15361036023451	    0.70147085924049	    0.29879127289492	    1.07861868611710	    0.67470547982286	    0.30668771154793	    1.03831855547426	    0.55436378204933	    0.29988779596252	    1.03403334901431	    0.47894354720542	    0.29833384237087	    0.96741158969716	    0.54539388777578	    0.30402242618741	    0.97531997770903	    0.47981950679454	    0.30256027348725	    0.78442912552175	    0.38534433504429	    0.38597292326915	    0.70066826324268	    0.53328611668480	    0.44681146778440	    0.69827364531329	    0.44404259210572	    0.36454312645503	    0.76696999444253	    0.25562961734428	    0.36607275583686	    1.06997852176169	    0.75371522457367	    0.71581917723579	    1.14323414105721	    0.75388564490907	    0.69768500397944	    1.07172793148082	    0.65520128294130	    0.70019464664257	    1.14160740156576	    0.65871176463710	    0.68643810973786	    1.00536277436998	    0.33896187531637	    0.66078434041434	    1.07920493313381	    0.32569542276730	    0.64434471851373	    0.99841568954332	    0.27078118553584	    0.64033784462299	    1.06924080229905	    0.26909674298640	    0.62644667757750	    1.09062577386758	    0.08695750646623	    0.53723845223390	    0.92032969311656	    0.04518741677896	    0.50528737804818	    1.01560408837008	    0.01338441258068	    0.57976443892913	    1.21463224262479	    0.04072486352606	    0.54689990856971
